<svg width="36" height="36" viewBox="0 0 36 36" fill="none" xmlns="http://www.w3.org/2000/svg">
<circle cx="18" cy="18" r="16.5" fill="#FBFF4F" stroke="#3BC438" stroke-width="3"/>
<path d="M24.6719 8.9375V20.1055C24.6719 21.3711 24.4023 22.4688 23.8633 23.3984C23.3242 24.3203 22.5508 25.0234 21.543 25.5078C20.5352 25.9922 19.3438 26.2344 17.9688 26.2344C15.8906 26.2344 14.2539 25.6953 13.0586 24.6172C11.8633 23.5391 11.2539 22.0625 11.2305 20.1875V8.9375H15.3672V20.2695C15.4141 22.1367 16.2812 23.0703 17.9688 23.0703C18.8203 23.0703 19.4648 22.8359 19.9023 22.3672C20.3398 21.8984 20.5586 21.1367 20.5586 20.082V8.9375H24.6719Z" fill="#3BC438"/>
</svg>
